<svg width="120" height="24" viewBox="0 0 120 24" fill="none" xmlns="http://www.w3.org/2000/svg">
<path d="M57.333 7.04348C56.4627 6.59939 55.5352 6.27808 54.5769 6.08869C53.1285 5.77043 52.4394 5.27522 52.5098 4.60304C52.5801 3.89522 53.128 3.52348 54.1536 3.48782C55.3163 3.48782 56.0214 3.97609 56.2689 4.95261C56.3117 5.11249 56.4718 5.211 56.6336 5.17696L58.6004 4.77522C58.6857 4.75811 58.76 4.70619 58.8055 4.63193C58.8509 4.55768 58.8635 4.4678 58.84 4.38391C58.2626 2.37435 56.6648 1.38609 54.0467 1.41913C51.4131 1.55652 49.9838 2.60522 49.7588 4.56522L49.7523 4.63826C49.6976 6.38696 50.7396 7.48913 52.8784 7.94478C53.5852 8.11869 54.3628 8.34869 55.2112 8.63478C56.0031 8.94522 56.4091 9.42348 56.4291 10.0696V10.1687C56.3422 11.0209 55.7253 11.4639 54.5782 11.4978C53.1272 11.4978 52.2588 10.8048 51.9731 9.41869C51.9409 9.24908 51.778 9.13727 51.6084 9.16826L49.6468 9.52826C49.5617 9.54409 49.4868 9.59428 49.4398 9.66706C49.3927 9.73983 49.3776 9.82879 49.3981 9.91304C50.0059 12.3478 51.7482 13.5487 54.6251 13.5157C57.5775 13.4443 59.114 12.2896 59.2347 10.0513V9.97304C59.1913 8.64956 58.5574 7.67304 57.333 7.04348Z" fill="#333333"/>
<path d="M70.9549 1.60044H68.9321C68.7587 1.60044 68.6182 1.74117 68.6182 1.91478V6.00913C68.6182 6.18274 68.4776 6.32348 68.3043 6.32348H63.8444C63.6711 6.32348 63.5305 6.18274 63.5305 6.00913V1.91478C63.5305 1.74117 63.39 1.60044 63.2166 1.60044H61.1951C61.1116 1.60009 61.0314 1.63305 60.9723 1.69204C60.9131 1.75103 60.8799 1.83119 60.8799 1.91478V13.0148C60.8799 13.0984 60.9131 13.1785 60.9723 13.2375C61.0314 13.2965 61.1116 13.3295 61.1951 13.3291H63.2166C63.39 13.3291 63.5305 13.1884 63.5305 13.0148V8.92044C63.5305 8.74683 63.6711 8.60609 63.8444 8.60609H68.3056C68.4789 8.60609 68.6195 8.74683 68.6195 8.92044V13.0148C68.6195 13.1884 68.76 13.3291 68.9334 13.3291H70.9562C71.1296 13.3291 71.2701 13.1884 71.2701 13.0148V1.91478C71.2701 1.83119 71.2368 1.75103 71.1777 1.69204C71.1185 1.63305 71.0384 1.60009 70.9549 1.60044Z" fill="#333333"/>
<path d="M83.0396 1.62522H80.9646C80.7913 1.62522 80.6507 1.76595 80.6507 1.93956V8.31261C80.6507 10.3291 79.8206 11.3374 78.1603 11.3374C76.428 11.3035 75.5444 10.313 75.5097 8.36609V1.93956C75.5097 1.76595 75.3691 1.62522 75.1958 1.62522H73.1743C73.0909 1.62487 73.0109 1.65787 72.9519 1.7169C72.893 1.77593 72.86 1.85609 72.8604 1.93956V8.36609C72.8942 11.7983 74.6079 13.5143 78.0014 13.5143C81.5694 13.5143 83.3535 11.7626 83.3535 8.25913V1.93956C83.3535 1.85619 83.3204 1.77624 83.2615 1.71729C83.2027 1.65834 83.1228 1.62522 83.0396 1.62522Z" fill="#333333"/>
<rect x="45.1975" y="1.44652" width="2.79261" height="12.0874" rx="1.3963" fill="#333333"/>
<path d="M43.4509 13.0696L38.8921 1.65783C38.8411 1.5304 38.7179 1.44677 38.5808 1.44652H36.0864C35.9475 1.44632 35.8225 1.53113 35.7712 1.66044C35.641 1.97739 35.3805 2.62565 35.0496 3.46696L34.7383 4.24957L34.2173 5.55391L31.1043 13.3474C31.0956 13.3693 31.0925 13.3931 31.0952 13.4165C31.101 13.4611 31.1276 13.5003 31.1668 13.5222C31.1872 13.5333 31.21 13.5391 31.2332 13.5391H33.6182C33.6758 13.5425 33.7289 13.5075 33.7484 13.453L34.0727 12.643L34.1639 12.4148L34.3033 12.0665L34.3749 11.8852L34.6706 11.147V11.1404L37.1832 4.85087C37.2074 4.78882 37.2671 4.74798 37.3336 4.74798C37.4001 4.74798 37.4598 4.78882 37.484 4.85087C37.8357 5.73 38.3685 7.14391 39.0471 8.83174C39.0699 8.88853 39.059 8.95334 39.0189 8.99955C38.9788 9.04576 38.9162 9.06558 38.8569 9.05087C37.9738 8.82 37.1806 8.97913 36.8627 9.13826C36.4134 9.36261 36.3873 9.77348 36.7038 9.93261C37.8149 10.4087 40.0761 12.0365 40.855 13.2848L40.868 13.3109C40.9237 13.4493 41.0576 13.5401 41.2066 13.5404H43.1422C43.2551 13.5393 43.36 13.4819 43.4219 13.3874C43.4839 13.2929 43.4947 13.1737 43.4509 13.0696Z" fill="#333333"/>
<path fill-rule="evenodd" clip-rule="evenodd" d="M89.2097 1.95652V12.6665C89.2097 12.9662 89.4523 13.2091 89.7516 13.2091H93.9301C96.2051 13.2091 97.9535 12.6474 99.1753 11.5239C100.369 10.463 101.039 8.9312 101.007 7.33304C101.008 5.66174 100.414 4.25739 99.2274 3.12C98.0404 1.98261 96.4674 1.41391 94.5084 1.41391H89.7516C89.4523 1.41391 89.2097 1.65685 89.2097 1.95652ZM92.423 11.4717C92.1238 11.4717 91.8812 11.2288 91.8812 10.9291L91.8747 3.63261C91.8747 3.33293 92.1173 3.09 92.4165 3.09H94.3456C95.5039 3.09087 96.4361 3.49 97.1421 4.28739C97.848 5.08478 98.201 6.05957 98.201 7.21174C98.201 8.62391 97.7972 9.68696 96.9897 10.4009C96.1821 11.1148 95.1991 11.4717 94.0408 11.4717H92.423Z" fill="#333333"/>
<path d="M105.602 13.2091H103.807C103.587 13.2091 103.408 13.0304 103.408 12.81V1.81174C103.408 1.706 103.45 1.60461 103.525 1.52997C103.6 1.45533 103.701 1.41357 103.807 1.41391H105.602C105.707 1.41357 105.809 1.45533 105.884 1.52997C105.958 1.60461 106 1.706 106 1.81174V12.81C106 13.0304 105.822 13.2091 105.602 13.2091Z" fill="#333333"/>
<path fill-rule="evenodd" clip-rule="evenodd" d="M109.595 13.2091H111.317C111.556 13.2099 111.751 13.0168 111.752 12.7774V8.97C111.753 8.73063 111.947 8.53696 112.186 8.53696H115.345C116.692 8.53609 117.805 8.20174 118.683 7.53391C119.561 6.86609 120 5.99348 120 4.91609C119.999 3.97261 119.594 3.15304 118.783 2.45739C117.973 1.76174 116.728 1.41391 115.049 1.41391H109.595C109.356 1.41391 109.162 1.60838 109.162 1.84826V12.7748C109.162 13.0147 109.356 13.2091 109.595 13.2091ZM112.185 6.71087C111.945 6.71087 111.751 6.51641 111.751 6.27652V3.60783C111.751 3.36794 111.945 3.17348 112.185 3.17348H114.584C115.603 3.17348 116.307 3.34739 116.697 3.69522C117.068 4.00141 117.282 4.45802 117.282 4.93957C117.295 5.44687 117.058 5.92831 116.649 6.22696C116.228 6.54957 115.617 6.71087 114.816 6.71087H112.185Z" fill="#333333"/>
<path fill-rule="evenodd" clip-rule="evenodd" d="M32.7219 18.4435V22.6957L34.0726 22.697C34.6028 22.697 35.0131 22.62 35.3074 22.4661C35.6106 22.3015 35.8595 22.0523 36.0238 21.7487C36.2123 21.4046 36.3071 21.0168 36.2986 20.6243C36.3106 20.1741 36.1896 19.7304 35.9509 19.3487C35.7234 18.996 35.3831 18.7311 34.9857 18.5974C34.6978 18.4957 34.2381 18.4435 33.6024 18.4435H32.7219ZM33.6194 22.2939H33.1283V18.8596H33.4292C34.0388 18.8596 34.4816 18.9 34.7421 18.9809C35.0801 19.0764 35.3738 19.2879 35.5718 19.5783C35.7757 19.8901 35.8793 20.257 35.8688 20.6296C35.8804 20.9808 35.7845 21.3271 35.594 21.6222C35.4148 21.8905 35.149 22.0889 34.8411 22.1843C34.6132 22.2574 34.2068 22.2939 33.6194 22.2939Z" fill="#333333"/>
<path fill-rule="evenodd" clip-rule="evenodd" d="M40.0407 21.8309L39.6995 21.6522C39.61 21.8173 39.4958 21.9678 39.3608 22.0983C39.2457 22.1962 39.1131 22.2714 38.9701 22.32C38.8208 22.3755 38.6629 22.4037 38.5037 22.4035C38.1882 22.4106 37.8844 22.2836 37.6675 22.0539C37.4389 21.8112 37.3137 21.4888 37.3185 21.1552H40.141C40.1509 20.7675 40.0287 20.388 39.7945 20.0791C39.4906 19.6798 39.0126 19.4524 38.5116 19.4687C38.0241 19.4531 37.5594 19.6753 37.2651 20.0648C37.0238 20.3675 36.8945 20.7445 36.899 21.1317C36.897 21.5523 37.0511 21.9586 37.3315 22.2717C37.6346 22.6145 38.0771 22.8003 38.5337 22.7765C38.7455 22.78 38.9562 22.7442 39.155 22.6709C39.3381 22.6009 39.5062 22.4964 39.65 22.363C39.8109 22.2104 39.9432 22.0302 40.0407 21.8309ZM39.465 20.2826C39.5798 20.4375 39.6598 20.6155 39.6995 20.8043L37.3588 20.8017C37.4166 20.5537 37.5441 20.3274 37.7261 20.1496C37.9434 19.9523 38.2275 19.8455 38.5207 19.8509C38.7056 19.851 38.8883 19.8915 39.056 19.9696C39.2145 20.0411 39.3545 20.1482 39.465 20.2826Z" fill="#333333"/>
<path d="M43.9483 20.2043L43.6279 20.4039C43.3651 20.0429 42.9405 19.8362 42.4947 19.8522C42.14 19.8409 41.796 19.9741 41.5412 20.2213C41.2943 20.4542 41.1567 20.7804 41.1622 21.12C41.1609 21.3491 41.2212 21.5744 41.3367 21.7722C41.4495 21.9708 41.6155 22.1339 41.816 22.243C42.0252 22.3558 42.2597 22.4133 42.4973 22.41C42.9408 22.4188 43.3615 22.2135 43.6279 21.8583L43.9483 22.0696C43.7968 22.2942 43.5881 22.4743 43.3439 22.5913C43.0736 22.7189 42.7778 22.7827 42.479 22.7778C42.0202 22.7925 41.5748 22.6219 41.2429 22.3043C40.9236 22.0064 40.7452 21.587 40.7519 21.15C40.7503 20.8517 40.83 20.5585 40.9824 20.3022C41.1314 20.0433 41.3498 19.8314 41.6129 19.6904C41.8885 19.5418 42.1973 19.466 42.5103 19.47C42.7146 19.4698 42.9177 19.5019 43.1121 19.5652C43.2888 19.6205 43.4551 19.7047 43.6044 19.8143C43.7435 19.9204 43.8604 20.053 43.9483 20.2043Z" fill="#333333"/>
<path fill-rule="evenodd" clip-rule="evenodd" d="M45.384 18.36C45.2917 18.2952 45.1626 18.2592 45.0284 18.2609C44.8954 18.2598 44.7679 18.2958 44.6767 18.36C44.5808 18.4219 44.5276 18.5073 44.5293 18.5961C44.5304 18.779 44.7529 18.9273 45.0284 18.9287C45.2309 18.9282 45.4132 18.847 45.4908 18.7228C45.5685 18.5986 45.5264 18.4556 45.384 18.36ZM45.3348 19.5561H44.7258V22.6957H45.3348V19.5561Z" fill="#333333"/>
<path d="M47.4874 19.8952L47.2269 20.1639C47.0652 19.98 46.8379 19.8671 46.5938 19.8496C46.4687 19.8474 46.3477 19.8942 46.2565 19.98C46.1679 20.0562 46.1166 20.167 46.1158 20.2839C46.1181 20.3921 46.1593 20.4958 46.2317 20.5761C46.3719 20.7159 46.5366 20.8287 46.7176 20.9087C46.9515 21.0142 47.1606 21.168 47.3311 21.36C47.4358 21.5034 47.4915 21.6767 47.49 21.8543C47.4934 22.1001 47.3948 22.3363 47.2177 22.5065C47.038 22.6856 46.7926 22.7827 46.5391 22.7752C46.3587 22.776 46.1805 22.7354 46.0181 22.6565C45.8582 22.5814 45.7181 22.4697 45.6091 22.3304L45.8696 22.0409C46.0254 22.247 46.2633 22.3747 46.5209 22.3904C46.6739 22.3946 46.8224 22.3389 46.9351 22.2352C47.0433 22.1438 47.1057 22.0092 47.1057 21.8674C47.1064 21.7543 47.0666 21.6447 46.9937 21.5583C46.8439 21.4187 46.6718 21.3054 46.4844 21.223C46.2604 21.1248 46.0614 20.9772 45.9022 20.7913C45.8007 20.6492 45.7472 20.4782 45.7498 20.3035C45.7435 20.0793 45.8319 19.8628 45.9934 19.7074C46.1588 19.5482 46.3814 19.4626 46.6108 19.47C46.9017 19.47 47.1939 19.6117 47.4874 19.8952Z" fill="#333333"/>
<path fill-rule="evenodd" clip-rule="evenodd" d="M48.8669 18.36C48.7746 18.2952 48.6455 18.2592 48.5113 18.2609C48.3783 18.2598 48.2508 18.2958 48.1596 18.36C48.0638 18.4219 48.0105 18.5073 48.0122 18.5961C48.0133 18.779 48.2358 18.9273 48.5113 18.9287C48.7138 18.9282 48.8961 18.847 48.9738 18.7228C49.0514 18.5986 49.0093 18.4556 48.8669 18.36ZM48.8178 19.5561H48.2087V22.6957H48.8178V19.5561Z" fill="#333333"/>
<path fill-rule="evenodd" clip-rule="evenodd" d="M52.0774 19.9917C51.772 19.6495 51.3321 19.4588 50.8739 19.47C50.4144 19.4587 49.9733 19.6505 49.6678 19.9943C49.0802 20.6462 49.091 21.6406 49.6925 22.2796C50.0044 22.595 50.4293 22.7725 50.8726 22.7725C51.3159 22.7725 51.7408 22.595 52.0527 22.2796C52.6546 21.6398 52.6654 20.6445 52.0774 19.9917ZM50.0077 20.2343C50.2309 19.9931 50.5455 19.8576 50.8739 19.8613L50.8726 19.8665C51.2011 19.8657 51.5148 20.0029 51.7375 20.2448C51.9758 20.4839 52.107 20.8096 52.1009 21.1474C52.1023 21.37 52.0453 21.5891 51.9355 21.7826C51.8323 21.973 51.678 22.1307 51.49 22.2378C51.1061 22.4517 50.6391 22.4517 50.2552 22.2378C50.0672 22.1307 49.9129 21.973 49.8097 21.7826C49.6986 21.5859 49.6419 21.363 49.6456 21.137C49.639 20.7993 49.7697 20.4736 50.0077 20.2343Z" fill="#333333"/>
<path d="M53.2588 19.5509H53.6626V20.1157C53.8046 19.9167 53.9882 19.7512 54.2005 19.6304C54.397 19.5232 54.6176 19.468 54.8414 19.47C55.063 19.4663 55.2807 19.529 55.4666 19.65C55.6458 19.767 55.786 19.9351 55.869 20.1326C55.9711 20.4369 56.0153 20.7577 55.9993 21.0783V22.6957H55.5942V21.1957C55.6032 20.9526 55.5883 20.7093 55.5499 20.4691C55.5172 20.286 55.4219 20.12 55.2803 19.9996C55.1297 19.8889 54.9459 19.8332 54.7593 19.8417C54.5202 19.8421 54.2892 19.9281 54.108 20.0843C53.9198 20.2392 53.786 20.4504 53.7264 20.687C53.6771 20.9693 53.6575 21.2561 53.6678 21.5426V22.6957H53.264L53.2588 19.5509Z" fill="#333333"/>
<path d="M58.5079 18.4435H58.9273V22.6957H58.5027L58.5079 18.4435Z" fill="#333333"/>
<path d="M59.8391 19.5509H60.2429V20.1157C60.3848 19.9171 60.5679 19.7516 60.7795 19.6304C60.9761 19.5235 61.1966 19.4683 61.4204 19.47C61.6421 19.466 61.8599 19.5287 62.0456 19.65C62.2256 19.7665 62.3663 19.9347 62.4494 20.1326C62.5513 20.4369 62.5955 20.7577 62.5796 21.0783V22.6957H62.1758V21.1957C62.1846 20.9526 62.1693 20.7092 62.1302 20.4691C62.0985 20.286 62.0036 20.1198 61.8619 19.9996C61.7113 19.8889 61.5275 19.8332 61.3409 19.8417C61.1019 19.8421 60.8708 19.9281 60.6897 20.0843C60.5015 20.2395 60.3674 20.4505 60.3067 20.687C60.2588 20.9695 60.2395 21.2562 60.2494 21.5426V22.6957H59.8391V19.5509Z" fill="#333333"/>
<path d="M63.7974 18.3835H64.2012V19.5509H64.842V19.9017H64.2012V22.6957H63.7974V19.9017H63.2451V19.5509H63.7974V18.3835Z" fill="#333333"/>
<path fill-rule="evenodd" clip-rule="evenodd" d="M68.4345 21.8309L68.0932 21.6522C68.0029 21.8168 67.8888 21.9671 67.7546 22.0983C67.6395 22.1962 67.5069 22.2714 67.3638 22.32C67.2142 22.3756 67.0558 22.4038 66.8962 22.4035C66.5811 22.4104 66.2778 22.2834 66.0613 22.0539C65.8324 21.8113 65.7067 21.489 65.7109 21.1552H68.5361C68.5466 20.7672 68.4238 20.3874 68.1883 20.0791C67.8846 19.6797 67.4065 19.4522 66.9053 19.4687C66.4183 19.4533 65.954 19.6756 65.6601 20.0648C65.4185 20.3674 65.2887 20.7443 65.2928 21.1317C65.2912 21.5525 65.4458 21.9588 65.7266 22.2717C66.0297 22.6145 66.4722 22.8003 66.9288 22.7765C67.1406 22.7798 67.3512 22.7439 67.5501 22.6709C67.733 22.6012 67.9006 22.4967 68.0437 22.363C68.205 22.2108 68.3374 22.0305 68.4345 21.8309ZM67.8575 20.2826C67.9728 20.4374 68.0532 20.6154 68.0932 20.8043L65.7513 20.8017C65.8102 20.5541 65.9374 20.3281 66.1186 20.1496C66.3364 19.9524 66.6209 19.8456 66.9145 19.8509C67.099 19.8509 67.2813 19.8914 67.4485 19.9696C67.6072 20.0408 67.7472 20.148 67.8575 20.2826Z" fill="#333333"/>
<path d="M69.2317 18.3365H69.6355V22.6957H69.2317V18.3365Z" fill="#333333"/>
<path d="M70.4143 18.3365H70.8194V22.6957H70.4143V18.3365Z" fill="#333333"/>
<path fill-rule="evenodd" clip-rule="evenodd" d="M72.3209 18.36C72.2289 18.2952 72.1 18.2592 71.9661 18.2609C71.8335 18.2601 71.7064 18.296 71.6151 18.36C71.4717 18.455 71.4286 18.5982 71.5059 18.7226C71.5832 18.847 71.7656 18.9282 71.968 18.9282C72.1704 18.9282 72.3528 18.847 72.4301 18.7226C72.5074 18.5982 72.4643 18.455 72.3209 18.36ZM72.2739 19.5561H71.6641V22.6957H72.2739V19.5561Z" fill="#333333"/>
<path fill-rule="evenodd" clip-rule="evenodd" d="M75.9553 19.5509H75.5515L75.5554 20.0935C75.3951 19.8934 75.1945 19.7294 74.9667 19.6122C74.7611 19.5146 74.5363 19.4647 74.3089 19.4661C73.7315 19.4698 73.199 19.7785 72.9082 20.2781C72.6175 20.7776 72.6117 21.3938 72.8931 21.8987C73.0332 22.1421 73.2373 22.3424 73.4831 22.4778C73.9487 22.7413 74.5126 22.7642 74.9979 22.5391C75.216 22.4367 75.407 22.2843 75.5554 22.0943V22.2561C75.5716 22.5133 75.5302 22.7709 75.4343 23.01C75.3417 23.1788 75.1999 23.3153 75.0279 23.4013C74.8117 23.5105 74.5717 23.5639 74.3297 23.5565C74.0868 23.5647 73.8457 23.5127 73.6277 23.4052C73.4325 23.2985 73.2717 23.1383 73.164 22.9435H72.7263C72.8145 23.1525 72.9403 23.3435 73.0975 23.507C73.2479 23.6448 73.4254 23.7497 73.6186 23.8148C73.8522 23.8935 74.0976 23.9319 74.3441 23.9283C74.6742 23.9384 75.0008 23.8576 75.2884 23.6948C75.5453 23.5446 75.7406 23.3079 75.8394 23.027C75.9319 22.7127 75.9711 22.3851 75.9553 22.0578V19.5509ZM73.7202 20.027C73.9148 19.9168 74.1348 19.8597 74.3584 19.8613C74.574 19.86 74.7861 19.9158 74.9732 20.023C75.1591 20.1256 75.3126 20.2783 75.416 20.4639C75.5213 20.6584 75.5747 20.8767 75.571 21.0978C75.5864 21.4263 75.4636 21.7461 75.2324 21.9796C74.992 22.2094 74.6683 22.3309 74.3362 22.3161C74.0032 22.3293 73.679 22.2069 73.4375 21.977C73.2072 21.7531 73.0815 21.4426 73.091 21.1213C73.0899 20.8988 73.1479 20.68 73.2591 20.4874C73.3676 20.2944 73.5271 20.1351 73.7202 20.027Z" fill="#333333"/>
<path fill-rule="evenodd" clip-rule="evenodd" d="M79.8069 21.8309L79.4669 21.6522C79.3762 21.8169 79.2617 21.9672 79.127 22.0983C79.0116 22.1958 78.8791 22.271 78.7362 22.32C78.587 22.3756 78.4291 22.4039 78.2699 22.4035C77.9544 22.4104 77.6507 22.2834 77.4337 22.0539C77.2051 21.8112 77.0799 21.4888 77.0846 21.1552H79.9072C79.9171 20.7675 79.7949 20.388 79.5607 20.0791C79.2568 19.6798 78.7788 19.4524 78.2777 19.4687C77.7903 19.4533 77.3257 19.6755 77.0312 20.0648C76.5188 20.7204 76.5473 21.6489 77.099 22.2717C77.3881 22.6083 77.7884 22.7765 78.2999 22.7765C78.5121 22.7799 78.7232 22.7441 78.9225 22.6709C79.1051 22.6006 79.2726 22.4961 79.4162 22.363C79.5771 22.2104 79.7094 22.0302 79.8069 21.8309ZM79.2312 20.2826C79.346 20.4377 79.4263 20.6156 79.4669 20.8043L77.125 20.8017C77.1833 20.5539 77.3107 20.3278 77.4923 20.1496C77.7095 19.9523 77.9937 19.8455 78.2869 19.8509C78.4718 19.8509 78.6545 19.8914 78.8222 19.9696C78.9809 20.0408 79.1209 20.148 79.2312 20.2826Z" fill="#333333"/>
<path d="M80.665 19.5509H81.0701V20.1157C81.2117 19.9168 81.3948 19.7512 81.6068 19.6304C81.8034 19.5235 82.0239 19.4683 82.2476 19.47C82.4693 19.466 82.6871 19.5287 82.8728 19.65C83.0528 19.7662 83.1932 19.9346 83.2753 20.1326C83.378 20.4367 83.4222 20.7576 83.4055 21.0783V22.6957H83.0018V21.1957C83.0105 20.9526 82.9952 20.7092 82.9562 20.4691C82.9235 20.286 82.8282 20.12 82.6866 19.9996C82.536 19.8889 82.3521 19.8332 82.1655 19.8417C81.9264 19.8417 81.6953 19.9278 81.5143 20.0843C81.3257 20.2391 81.1915 20.4503 81.1313 20.687C81.0834 20.9695 81.0642 21.2562 81.074 21.5426V22.6957H80.6702L80.665 19.5509Z" fill="#333333"/>
<path d="M87.3222 20.2043L87.0018 20.4039C86.7389 20.0431 86.3144 19.8364 85.8686 19.8522C85.5137 19.8391 85.1686 19.9709 84.9126 20.2174C84.6656 20.4503 84.5281 20.7765 84.5335 21.1161C84.5323 21.3452 84.5926 21.5705 84.7081 21.7683C84.8207 21.9666 84.9862 22.1296 85.1861 22.2391C85.3958 22.3518 85.6306 22.4093 85.8686 22.4061C86.3121 22.4149 86.7329 22.2096 86.9992 21.8543L87.3196 22.0657C87.1681 22.2903 86.9595 22.4704 86.7152 22.5874C86.445 22.715 86.1491 22.7788 85.8504 22.7739C85.3916 22.7887 84.9461 22.6181 84.6143 22.3004C84.295 22.0025 84.1166 21.5831 84.1232 21.1461C84.1218 20.8479 84.201 20.555 84.3525 20.2983C84.5023 20.0396 84.721 19.8278 84.9842 19.6865C85.2598 19.5379 85.5686 19.4621 85.8816 19.4661C86.086 19.4659 86.2891 19.498 86.4834 19.5613C86.6601 19.6166 86.8265 19.7008 86.9757 19.8104C87.1162 19.9174 87.234 20.0513 87.3222 20.2043Z" fill="#333333"/>
<path fill-rule="evenodd" clip-rule="evenodd" d="M91.0815 21.8309L90.7415 21.6522C90.6531 21.8193 90.5402 21.9723 90.4068 22.1061C90.2914 22.2036 90.1589 22.2788 90.016 22.3278C89.8668 22.3834 89.7089 22.4117 89.5497 22.4113C89.2345 22.4184 88.9311 22.2913 88.7148 22.0617C88.4854 21.8194 88.3596 21.4969 88.3644 21.163H91.1857C91.1956 20.7754 91.0734 20.3958 90.8392 20.087C90.5362 19.6836 90.0561 19.453 89.5523 19.4687C89.0652 19.4531 88.6009 19.6754 88.3071 20.0648C88.0655 20.3674 87.9357 20.7443 87.9398 21.1317C87.9381 21.5525 88.0927 21.9588 88.3735 22.2717C88.6618 22.6083 89.0626 22.7765 89.5758 22.7765C89.7876 22.7798 89.9982 22.7439 90.1971 22.6709C90.3798 22.6009 90.5474 22.4964 90.6907 22.363C90.8521 22.2108 90.9845 22.0305 91.0815 21.8309ZM90.5058 20.2826C90.6205 20.4377 90.7009 20.6156 90.7415 20.8043L88.3996 20.8017C88.4584 20.5541 88.5857 20.3281 88.7669 20.1496C88.9841 19.9523 89.2683 19.8455 89.5614 19.8509C89.7464 19.8507 89.9291 19.8912 90.0968 19.9696C90.2555 20.0408 90.3955 20.1479 90.5058 20.2826Z" fill="#333333"/>
<path fill-rule="evenodd" clip-rule="evenodd" d="M94.4863 18.4435H93.6396V22.6957H94.0591V20.7196H94.3625C94.7239 20.7318 95.0855 20.7087 95.4423 20.6504C95.6846 20.5993 95.9029 20.4684 96.0623 20.2787C96.3662 19.8608 96.3662 19.2944 96.0623 18.8765C95.9101 18.691 95.7008 18.5612 95.4671 18.5074C95.1431 18.4533 94.8145 18.4319 94.4863 18.4435ZM94.0643 20.3035V18.8609L94.8145 18.8622C95.0239 18.8516 95.2336 18.8767 95.4345 18.9365C95.5605 18.9861 95.6673 19.0748 95.7393 19.1896C95.8156 19.3056 95.8556 19.4419 95.8539 19.5809C95.8546 19.7197 95.8147 19.8557 95.7393 19.9722C95.6635 20.0905 95.5523 20.1818 95.4215 20.233C95.2147 20.2951 94.9989 20.3215 94.7833 20.3113L94.0643 20.3035Z" fill="#333333"/>
<path d="M97.0156 18.3365H97.4194V22.6957H97.0156V18.3365Z" fill="#333333"/>
<path fill-rule="evenodd" clip-rule="evenodd" d="M101.39 22.6957V19.5509L100.991 19.5535V20.1326C100.849 19.9267 100.661 19.7573 100.441 19.6383C100.225 19.526 99.9843 19.469 99.7406 19.4726C99.3079 19.4671 98.8925 19.6424 98.5944 19.9565C98.2829 20.2619 98.1105 20.6822 98.1177 21.1187C98.1102 21.5579 98.2808 21.9815 98.5905 22.2926C98.8854 22.6067 99.2984 22.7823 99.7289 22.7765C99.9683 22.7785 100.205 22.7254 100.421 22.6213C100.642 22.5087 100.836 22.3499 100.991 22.1557V22.6957H101.39ZM98.6973 20.4939C98.9122 20.1001 99.3263 19.8569 99.7745 19.8613C100.106 19.8552 100.425 19.9881 100.654 20.2278C100.893 20.4703 101.023 20.8002 101.013 21.1409C101.017 21.366 100.962 21.5881 100.853 21.7852C100.746 21.9763 100.587 22.1335 100.396 22.2391C100.204 22.3486 99.9873 22.4061 99.7667 22.4061C99.5503 22.4069 99.3378 22.3487 99.1519 22.2378C98.9599 22.1243 98.802 21.9613 98.6947 21.7657C98.5836 21.5724 98.5248 21.3534 98.5241 21.1304C98.5245 20.9066 98.5843 20.687 98.6973 20.4939Z" fill="#333333"/>
<path d="M102.65 18.3835H103.055V19.5509H103.696V19.9017H103.055V22.6957H102.65V19.9017H102.099V19.5509H102.65V18.3835Z" fill="#333333"/>
<path d="M105.595 18.3365V18.7278C105.476 18.6709 105.347 18.6386 105.215 18.6326C105.146 18.6297 105.078 18.6464 105.018 18.6809C104.973 18.704 104.939 18.7431 104.921 18.7904C104.901 18.8997 104.894 19.0109 104.9 19.1217V19.5457H105.551V19.8965H104.9V22.6917H104.496V19.9017H104.083V19.5509H104.496V19.0604C104.487 18.8968 104.508 18.7329 104.557 18.5765C104.601 18.4785 104.675 18.3972 104.768 18.3443C104.878 18.2827 105.002 18.2521 105.128 18.2557C105.287 18.2608 105.444 18.288 105.595 18.3365Z" fill="#333333"/>
<path fill-rule="evenodd" clip-rule="evenodd" d="M108.845 19.9917C108.541 19.6487 108.1 19.4577 107.642 19.47C107.182 19.4587 106.741 19.6505 106.436 19.9943C105.848 20.6462 105.859 21.6406 106.46 22.2796C106.772 22.595 107.197 22.7725 107.64 22.7725C108.084 22.7725 108.509 22.595 108.821 22.2796C109.422 21.6398 109.433 20.6445 108.845 19.9917ZM106.776 20.2343C106.999 19.9931 107.313 19.8576 107.642 19.8613V19.8665C107.969 19.862 108.283 19.9955 108.507 20.2343C108.745 20.4734 108.876 20.7992 108.87 21.137C108.871 21.3594 108.815 21.5783 108.706 21.7722C108.602 21.9623 108.447 22.1199 108.259 22.2274C107.875 22.4413 107.408 22.4413 107.024 22.2274C106.837 22.1197 106.683 21.9621 106.579 21.7722C106.469 21.5786 106.412 21.3596 106.413 21.137C106.407 20.7995 106.538 20.4739 106.776 20.2343Z" fill="#333333"/>
<path d="M109.878 19.5509H110.291V20.0113C110.393 19.8513 110.526 19.713 110.682 19.6043C110.809 19.5202 110.957 19.4748 111.109 19.4739C111.236 19.4786 111.359 19.5154 111.467 19.5809L111.256 19.9226C111.189 19.8905 111.117 19.8719 111.043 19.8678C110.896 19.872 110.757 19.9311 110.652 20.0335C110.509 20.1764 110.409 20.3575 110.365 20.5552C110.301 20.9136 110.276 21.2779 110.291 21.6417V22.6957H109.878L109.878 19.5509Z" fill="#333333"/>
<path d="M111.971 19.5509H112.375V20.0948C112.489 19.9209 112.636 19.7714 112.809 19.6552C113.003 19.5352 113.226 19.4711 113.453 19.47C113.603 19.4694 113.75 19.5 113.887 19.56C114.015 19.6135 114.13 19.6951 114.222 19.7987C114.324 19.9248 114.401 20.0697 114.447 20.2252C114.565 19.9981 114.738 19.8046 114.951 19.663C115.145 19.5372 115.371 19.4702 115.603 19.47C115.806 19.4658 116.007 19.5236 116.177 19.6357C116.345 19.7467 116.475 19.907 116.548 20.0948C116.641 20.3799 116.682 20.6795 116.668 20.9791V22.6957H116.255V20.9791C116.268 20.7451 116.244 20.5105 116.184 20.2839C116.135 20.1588 116.049 20.0521 115.937 19.9787C115.813 19.8996 115.669 19.8596 115.522 19.8639C115.329 19.8627 115.141 19.9235 114.985 20.0374C114.824 20.1528 114.7 20.3134 114.63 20.4991C114.539 20.8129 114.501 21.1395 114.518 21.4657V22.6957H114.114V21.0861C114.127 20.8262 114.103 20.5657 114.042 20.3126C113.997 20.1803 113.911 20.066 113.796 19.9865C113.673 19.9026 113.526 19.8597 113.377 19.8639C113.19 19.8652 113.008 19.924 112.856 20.0322C112.693 20.1453 112.567 20.3041 112.495 20.4887C112.403 20.7709 112.363 21.0675 112.378 21.3639V22.6957H111.974L111.971 19.5509Z" fill="#333333"/>
<path d="M23.2878 0H16.7257C16.3678 0.00422544 16.0786 0.293753 16.0744 0.652174V6.78261L14.9191 7.96435H9.02387L7.86853 6.8113V0.652174C7.86431 0.293753 7.57519 0.00422544 7.21727 0H0.651261C0.293051 0.00353436 0.00352941 0.293462 0 0.652174V7.22217C0.00352941 7.58089 0.293051 7.87081 0.651261 7.87435H6.99194L7.95059 8.83435V15.0913L6.96588 16.0983H0.844034C0.486115 16.1025 0.196993 16.392 0.192773 16.7504V23.3217C0.192773 23.6819 0.484353 23.9739 0.844034 23.9739H7.40483C7.76452 23.9739 8.0561 23.6819 8.0561 23.3217V16.9461L8.96786 16.0161H15.332C15.6902 16.0126 15.9797 15.7226 15.9832 15.3639V8.84217L16.9185 7.88478H23.2826C23.6405 7.88056 23.9296 7.59103 23.9338 7.23261V0.652174C23.9297 0.295747 23.6437 0.00702024 23.2878 0V0Z" fill="url(#paint0_linear_153_1335)"/>
<rect x="10.8708" y="18.2178" width="5.77408" height="5.78217" fill="url(#paint1_linear_153_1335)"/>
<rect x="18.1702" y="18.2178" width="5.77408" height="5.78217" fill="url(#paint2_linear_153_1335)"/>
<rect x="18.187" y="10.2339" width="5.77408" height="5.78217" fill="url(#paint3_linear_153_1335)"/>
<defs>
<linearGradient id="paint0_linear_153_1335" x1="-0.113217" y1="34.5664" x2="18.317" y2="16.172" gradientUnits="userSpaceOnUse">
<stop stop-color="#0000FF"/>
<stop offset="0.84" stop-color="#3FA9F5"/>
</linearGradient>
<linearGradient id="paint1_linear_153_1335" x1="9.16194" y1="25.0213" x2="16.7688" y2="34.7127" gradientUnits="userSpaceOnUse">
<stop stop-color="#FFAA00"/>
<stop offset="0.41" stop-color="#FFA700"/>
<stop offset="0.75" stop-color="#FF9C00"/>
<stop offset="0.9" stop-color="#FF9500"/>
</linearGradient>
<linearGradient id="paint2_linear_153_1335" x1="13.6843" y1="21.4722" x2="21.2912" y2="31.1636" gradientUnits="userSpaceOnUse">
<stop stop-color="#FFAA00"/>
<stop offset="0.41" stop-color="#FFA700"/>
<stop offset="0.75" stop-color="#FF9C00"/>
<stop offset="0.9" stop-color="#FF9500"/>
</linearGradient>
<linearGradient id="paint3_linear_153_1335" x1="17.5644" y1="18.4265" x2="25.1713" y2="28.1179" gradientUnits="userSpaceOnUse">
<stop stop-color="#FFAA00"/>
<stop offset="0.41" stop-color="#FFA700"/>
<stop offset="0.75" stop-color="#FF9C00"/>
<stop offset="0.9" stop-color="#FF9500"/>
</linearGradient>
</defs>
</svg>
