<svg width="14" height="14" viewBox="0 0 14 14" fill="none" xmlns="http://www.w3.org/2000/svg">
<path d="M4.59987 0.069881C4.95425 -0.081494 5.4285 0.021756 5.68925 0.295631C5.87912 0.494256 6.53188 1.06126 7.03588 1.06126C7.53288 1.06126 8.18475 0.504756 8.37463 0.309631C8.63538 0.038381 9.11488 -0.058744 9.46488 0.092631L9.49113 0.105756L11.2411 1.08051C11.5903 1.32463 11.7224 1.79888 11.55 2.18651C11.5439 2.20138 11.403 2.53651 11.403 2.83051C11.403 3.76413 12.1616 4.52363 13.0952 4.52363H13.1548C13.5004 4.52363 13.7708 4.80801 13.8539 5.24726C13.86 5.27876 14 6.02251 14 6.61838C14 7.21426 13.86 7.95888 13.8539 7.98951C13.7708 8.42875 13.5004 8.71313 13.1652 8.71313H13.0952C12.6465 8.71383 12.2163 8.89246 11.8991 9.20986C11.5819 9.52725 11.4035 9.9575 11.403 10.4063C11.403 10.7046 11.5447 11.038 11.5518 11.0529C11.7224 11.4388 11.5903 11.9121 11.242 12.1554L11.2157 12.1729L9.43425 13.1546C9.32137 13.2036 9.198 13.229 9.06763 13.229C8.93151 13.2296 8.7967 13.2024 8.6715 13.149C8.5463 13.0956 8.43336 13.0171 8.33963 12.9184C8.14713 12.7058 7.48213 12.1038 6.96413 12.1038C6.48637 12.1038 5.83537 12.6419 5.5965 12.9009C5.45683 13.0428 5.27837 13.1404 5.08349 13.1813C4.88861 13.2222 4.68598 13.2047 4.501 13.131L4.47475 13.1188L2.75625 12.1554C2.58666 12.0339 2.46372 11.858 2.40786 11.657C2.35199 11.4559 2.36655 11.2419 2.44913 11.0503C2.45525 11.0363 2.597 10.702 2.597 10.4063C2.59654 9.9575 2.41813 9.52725 2.10089 9.20986C1.78366 8.89246 1.3535 8.71383 0.90475 8.71313H0.84525C0.499625 8.71313 0.22925 8.42875 0.146125 7.98951C0.14 7.95888 0 7.21426 0 6.61838C0 6.02251 0.14 5.27788 0.146125 5.24726C0.22925 4.80801 0.499625 4.52363 0.833875 4.52363H0.90475C1.35357 4.52317 1.78387 4.34461 2.10115 4.02716C2.41843 3.70971 2.59677 3.27933 2.597 2.83051C2.597 2.53388 2.457 2.20313 2.44825 2.18476C2.36617 1.99297 2.35214 1.77889 2.40848 1.57803C2.46482 1.37717 2.58815 1.20162 2.758 1.08051L2.786 1.06301L4.59987 0.069881ZM3.41863 1.87501C3.48513 2.05001 3.61112 2.43413 3.61112 2.83051C3.6117 3.5099 3.35672 4.16466 2.89684 4.66474C2.43696 5.16482 1.80581 5.47365 1.12875 5.52988C1.09375 5.73726 1.01587 6.23251 1.01587 6.61838C1.01587 7.00426 1.09288 7.49951 1.12962 7.70688C1.80677 7.7631 2.43801 8.07189 2.89804 8.57196C3.35806 9.07202 3.61323 9.72678 3.61288 10.4063C3.61288 10.8018 3.49038 11.1798 3.41863 11.3644L4.87988 12.1825C4.956 12.102 5.17387 11.885 5.47312 11.668C5.99813 11.2821 6.4995 11.0879 6.965 11.0879C7.434 11.0879 7.93975 11.2874 8.46737 11.6785C8.7675 11.9016 8.988 12.1248 9.06238 12.2035L10.5831 11.3635C10.5157 11.1885 10.3889 10.8053 10.3889 10.4063C10.3886 9.7265 10.644 9.07151 11.1044 8.5714C11.5647 8.0713 12.1964 7.76268 12.8739 7.70688C12.9089 7.49951 12.9859 7.00426 12.9859 6.61838C12.9859 6.23513 12.9089 5.73726 12.8739 5.52988C12.1964 5.47408 11.5647 5.16547 11.1044 4.66536C10.644 4.16526 10.3886 3.51026 10.3889 2.83051C10.3889 2.42976 10.5149 2.04738 10.5831 1.87326L9.08425 1.04026C9.0195 1.10151 8.79813 1.31588 8.49187 1.53113C7.97825 1.89338 7.48825 2.07626 7.03675 2.07626C6.58087 2.07626 6.08825 1.88901 5.57025 1.51976C5.35933 1.36886 5.16094 1.2012 4.977 1.01838L3.4195 1.87501H3.41863ZM6.96938 4.11851C7.62985 4.1192 8.26307 4.38188 8.7301 4.84891C9.19712 5.31593 9.45981 5.94916 9.4605 6.60963C9.45934 7.2698 9.19646 7.90258 8.72948 8.36922C8.26251 8.83587 7.62955 9.09831 6.96938 9.09901C6.30936 9.09808 5.67662 8.83554 5.20983 8.36892C4.74305 7.90229 4.48028 7.26965 4.47913 6.60963C4.47982 5.94931 4.74238 5.31622 5.20922 4.84922C5.67605 4.38222 6.30905 4.11943 6.96938 4.11851ZM6.96938 5.13438C6.15563 5.13438 5.495 5.79676 5.495 6.60963C5.495 7.42251 6.15563 8.08401 6.96938 8.08401C7.78312 8.08401 8.44375 7.42251 8.44375 6.60963C8.44375 5.79588 7.78225 5.13438 6.9685 5.13438H6.96938Z" fill="black"/>
</svg>
