<svg width="12" height="14" viewBox="0 0 12 14" fill="none" xmlns="http://www.w3.org/2000/svg">
<path d="M1.227 1.183L5.898 3.996L10.716 6.895C10.733 6.905 10.777 6.933 10.777 7C10.7779 7.02137 10.7727 7.04254 10.7621 7.06111C10.7515 7.07968 10.7358 7.09489 10.717 7.105L5.9 10.005L1.227 12.819C1.22301 12.8009 1.221 12.7825 1.221 12.764V1.238C1.221 1.218 1.225 1.198 1.227 1.183ZM1.187 0C0.568 0 0 0.516 0 1.238V12.762C0 13.484 0.568 14 1.187 14C1.384 14 1.587 13.948 1.777 13.832L6.565 10.95L11.383 8.051C12.206 7.555 12.206 6.443 11.383 5.947L6.565 3.048L1.78 0.168C1.60136 0.0589463 1.39629 0.000848633 1.187 0Z" fill="black"/>
</svg>
