<svg width="16" height="16" viewBox="0 0 16 16" fill="none" xmlns="http://www.w3.org/2000/svg">
<path d="M13.656 3.432H11.2559C11.0239 1.552 9.65595 0.608002 8.00795 0.608002C6.35995 0.608002 4.99995 1.552 4.75995 3.432H2.35995L1.42395 15.672H14.6L13.656 3.432ZM8.00795 1.552C9.13595 1.552 10.08 2.024 10.312 3.432H5.70395C5.94395 2.024 6.87995 1.552 8.00795 1.552ZM2.45595 14.728L3.25595 4.376H12.76L13.56 14.728H2.45595ZM7.76795 11.376C7.76795 12.184 7.11195 12.832 6.31195 12.832C5.51195 12.832 4.85595 12.176 4.85595 11.376C4.85595 10.568 5.51195 9.92 6.31195 9.92H7.76795V11.376ZM8.25595 11.376C8.25595 12.184 8.91195 12.832 9.71195 12.832C10.512 12.832 11.168 12.176 11.168 11.376C11.168 10.568 10.512 9.92 9.71195 9.92H8.24795V11.376H8.25595ZM7.76795 7.976C7.76795 7.168 7.11195 6.52 6.31195 6.52C5.51195 6.52 4.85595 7.176 4.85595 7.976C4.85595 8.776 5.51195 9.432 6.31195 9.432H7.76795V7.976ZM8.25595 7.976C8.25595 7.168 8.91195 6.52 9.71195 6.52C10.512 6.52 11.168 7.176 11.168 7.976C11.168 8.776 10.512 9.432 9.71195 9.432H8.24795V7.976H8.25595Z" fill="url(#paint0_linear_144_911)"/>
<defs>
<linearGradient id="paint0_linear_144_911" x1="4.9618" y1="-1.65708" x2="-3.38547" y2="10.7532" gradientUnits="userSpaceOnUse">
<stop stop-color="#1C4DFA"/>
<stop offset="1" stop-color="#3FA9F5"/>
</linearGradient>
</defs>
</svg>
