<svg width="14" height="14" viewBox="0 0 14 14" fill="none" xmlns="http://www.w3.org/2000/svg">
<g clip-path="url(#clip0_215_12367)">
<path d="M9.02439 7.322C10.0365 6.678 10.6805 5.52846 10.6805 4.24046C10.6777 3.26521 10.289 2.33071 9.59941 1.6411C8.90981 0.951492 7.97531 0.562823 7.00006 0.559998C6.02481 0.562842 5.09033 0.951516 4.40072 1.64112C3.71112 2.33073 3.32244 3.26521 3.3196 4.24046C3.3196 5.52846 3.9636 6.678 4.9758 7.322C2.39973 8.14954 0.560059 10.5881 0.560059 13.44H1.47986C1.47986 10.4035 3.9636 7.91987 7.00006 7.91987C10.0365 7.91987 12.5202 10.4035 12.5202 13.44H13.4401C13.4401 10.5881 11.6004 8.14954 9.02439 7.322ZM7.00006 7C6.26888 6.99773 5.5683 6.70626 5.05128 6.18924C4.53426 5.67222 4.24279 4.97163 4.24052 4.24046C4.24249 3.50909 4.53383 2.80823 5.05089 2.29098C5.56794 1.77373 6.26869 1.48212 7.00006 1.47987C7.7316 1.48214 8.4325 1.7739 8.94958 2.29137C9.46666 2.80885 9.75788 3.50997 9.7596 4.24151C9.75711 4.97252 9.46554 5.67286 8.94853 6.18967C8.43153 6.70648 7.73107 6.99778 7.00006 7Z" fill="black"/>
</g>
<defs>
<clipPath id="clip0_215_12367">
<rect width="14" height="14" fill="white"/>
</clipPath>
</defs>
</svg>
