<svg width="25" height="25" viewBox="0 0 25 25" fill="none" xmlns="http://www.w3.org/2000/svg">
<path d="M4.64871 6.19826C3.79294 6.19826 3.09914 5.50447 3.09914 4.64869C3.09914 3.79292 3.79294 3.09912 4.64871 3.09912C5.50449 3.09912 6.19829 3.79292 6.19829 4.64869C6.19829 5.50447 5.50449 6.19826 4.64871 6.19826ZM12.3966 6.19826C11.5408 6.19826 10.847 5.50447 10.847 4.64869C10.847 3.79292 11.5408 3.09912 12.3966 3.09912C13.2523 3.09912 13.9461 3.79292 13.9461 4.64869C13.9461 5.50447 13.2523 6.19826 12.3966 6.19826ZM20.1444 6.19826C19.2887 6.19826 18.5949 5.50447 18.5949 4.64869C18.5949 3.79292 19.2887 3.09912 20.1444 3.09912C21.0002 3.09912 21.694 3.79292 21.694 4.64869C21.694 5.50447 21.0002 6.19826 20.1444 6.19826ZM4.64871 13.9461C3.79294 13.9461 3.09914 13.2523 3.09914 12.3966C3.09914 11.5408 3.79294 10.847 4.64871 10.847C5.50449 10.847 6.19829 11.5408 6.19829 12.3966C6.19829 13.2523 5.50449 13.9461 4.64871 13.9461ZM4.64871 21.694C3.79294 21.694 3.09914 21.0002 3.09914 20.1444C3.09914 19.2886 3.79294 18.5948 4.64871 18.5948C5.50449 18.5948 6.19829 19.2886 6.19829 20.1444C6.19829 21.0002 5.50449 21.694 4.64871 21.694ZM12.3966 21.694C11.5408 21.694 10.847 21.0002 10.847 20.1444C10.847 19.2886 11.5408 18.5948 12.3966 18.5948C13.2523 18.5948 13.9461 19.2886 13.9461 20.1444C13.9461 21.0002 13.2523 21.694 12.3966 21.694ZM20.1444 21.694C19.2887 21.694 18.5949 21.0002 18.5949 20.1444C18.5949 19.2886 19.2887 18.5948 20.1444 18.5948C21.0002 18.5948 21.694 19.2886 21.694 20.1444C21.694 21.0002 21.0002 21.694 20.1444 21.694ZM12.3966 13.9461C11.5408 13.9461 10.847 13.2523 10.847 12.3966C10.847 11.5408 11.5408 10.847 12.3966 10.847C13.2523 10.847 13.9461 11.5408 13.9461 12.3966C13.9461 13.2523 13.2523 13.9461 12.3966 13.9461ZM20.1444 13.9461C19.2887 13.9461 18.5949 13.2523 18.5949 12.3966C18.5949 11.5408 19.2887 10.847 20.1444 10.847C21.0002 10.847 21.694 11.5408 21.694 12.3966C21.694 13.2523 21.0002 13.9461 20.1444 13.9461Z" fill="black"/>
</svg>
